<svg width="24" height="24" viewBox="0 0 24 24" fill="none" xmlns="http://www.w3.org/2000/svg">
<g clip-path="url(#clip0)">
<path d="M19.0777 6.00149V3.18967H8.3237L3.51902 0V3.18967H1.41016V17.9986H4.92492V20.8104H15.6789L20.4836 24V20.8104H22.5925V6.00149H19.0777ZM2.81606 4.59558H4.92492V2.62084L7.89954 4.59558H17.6718V16.5927H2.81606V4.59558ZM21.1866 19.4045H19.0777V21.3792L16.1031 19.4044H6.33083V17.9985H19.0777V7.40735H21.1866V19.4045Z" fill="#242529"/>
<path d="M13.8688 7.68756L12.5814 8.43081C12.1513 7.96588 11.5847 7.62949 10.9459 7.48501V6H9.53995V7.48501C8.90115 7.62945 8.33452 7.96583 7.90436 8.43081L6.61702 7.68756L5.91406 8.90507L7.19934 9.64711C7.10632 9.94596 7.05613 10.2636 7.05613 10.5926C7.05613 10.9216 7.10627 11.2392 7.19934 11.5381L5.91406 12.2801L6.61702 13.4976L7.90436 12.7544C8.33452 13.2193 8.90115 13.5557 9.53995 13.7002V15.1852H10.9459V13.7002C11.5847 13.5557 12.1513 13.2193 12.5814 12.7544L13.8688 13.4976L14.5717 12.2801L13.2865 11.5381C13.3795 11.2392 13.4297 10.9216 13.4297 10.5926C13.4297 10.2636 13.3795 9.94596 13.2865 9.64711L14.5717 8.90507L13.8688 7.68756ZM10.243 12.3735C9.26102 12.3735 8.46213 11.5746 8.46213 10.5927C8.46213 9.61074 9.26102 8.81186 10.243 8.81186C11.2249 8.81186 12.0238 9.61074 12.0238 10.5927C12.0238 11.5746 11.2249 12.3735 10.243 12.3735Z" fill="#242529"/>
</g>
<defs>
<clipPath id="clip0">
<rect width="24" height="24" fill="white"/>
</clipPath>
</defs>
</svg>
