<svg width="512" height="512" viewBox="0 0 512 512" fill="none" xmlns="http://www.w3.org/2000/svg">
<path d="M256 512C397.385 512 512 397.385 512 256C512 114.615 397.385 0 256 0C114.615 0 0 114.615 0 256C0 397.385 114.615 512 256 512Z" fill="#0091EA"/>
<path d="M190.586 371.484L322.22 503.118C431.242 474.045 511.999 374.714 511.999 256.001C511.999 253.578 511.999 251.156 511.999 248.733L408.63 153.439L190.586 371.484Z" fill="#0B81C9"/>
<path d="M262.46 313.337C273.766 324.643 273.766 344.025 262.46 355.331L239.041 378.75C227.735 390.056 208.353 390.056 197.047 378.75L94.4854 275.381C83.1794 264.075 83.1794 244.693 94.4854 233.387L117.905 209.968C129.211 198.662 148.593 198.662 159.899 209.968L262.46 313.337Z" fill="white"/>
<path d="M352.1 134.864C363.406 123.558 382.788 123.558 394.094 134.864L417.513 158.284C428.819 169.59 428.819 188.972 417.513 200.277L239.848 377.136C228.542 388.442 209.16 388.442 197.854 377.136L174.435 353.716C163.129 342.41 163.129 323.028 174.435 311.722L352.1 134.864Z" fill="white"/>
</svg>
