<svg width="25" height="25" viewBox="0 0 25 25" fill="none" xmlns="http://www.w3.org/2000/svg">
<path d="M12.5 0C5.60752 0 0 5.60743 0 12.4999C0 19.3924 5.60752 25 12.5 25C19.3925 25 25 19.3924 25 12.4999C25 5.60743 19.3926 0 12.5 0ZM12.5 23.5563C6.40359 23.5563 1.44375 18.5964 1.44375 12.4999C1.44375 6.40355 6.40359 1.44375 12.5 1.44375C18.5964 1.44375 23.5563 6.40355 23.5563 12.4999C23.5563 18.5964 18.5964 23.5563 12.5 23.5563Z" fill="black"/>
<path d="M19.382 5.91341C19.1931 5.56215 18.7555 5.43065 18.4043 5.61942L10.2794 9.98821C10.1547 10.0553 10.0525 10.1575 9.98543 10.2822L5.6184 18.4053C5.4639 18.6927 5.52408 19.038 5.74352 19.2575C5.79217 19.3062 5.84867 19.3487 5.91252 19.3829C6.12955 19.4996 6.37967 19.4936 6.58359 19.3892L6.58372 19.3894L6.58678 19.3878C6.58972 19.3862 6.59262 19.3846 6.59552 19.3831L14.7244 15.0175C14.8492 14.9505 14.9514 14.8483 15.0185 14.7235L19.3681 6.62048C19.3776 6.6041 19.3867 6.58756 19.3948 6.57056L19.4007 6.55966L19.4 6.55941C19.4924 6.36019 19.4939 6.12171 19.382 5.91341ZM8.02301 16.9816L10.7981 11.8198L13.1844 14.2063L8.02301 16.9816ZM14.2059 13.1859L11.8194 10.7994L16.9808 8.02408" fill="black"/>
</svg>
