<svg id="Capa_1" enable-background="new 0 0 512 512" height="512" viewBox="0 0 512 512" width="512" xmlns="http://www.w3.org/2000/svg"><g><path d="m166 391h-91c-8.291 0-15-6.709-15-15v-60c0-8.291 6.709-15 15-15s15 6.709 15 15v45h61v-45c0-8.291 6.709-15 15-15s15 6.709 15 15v60c0 8.291-6.709 15-15 15z" fill="#474f54"/><path d="m241 180.399-30 30.601v45 45l30 30.599c43.557 1.282 89.247 20.048 124.501 54.901v-130.5-130.501c-35.301 34.9-80.975 53.619-124.501 54.9z" fill="#f0f7ff"/><path d="m241 331.599c43.557 1.282 89.247 20.048 124.501 54.901v-130.5h-154.501v45z" fill="#dfe7f4"/><path d="m421.776 200.746c-2.622-7.866 1.626-16.362 9.478-18.97l45-15c7.939-2.637 16.362 1.626 18.97 9.478 2.622 7.866-1.626 16.362-9.478 18.97l-45 15c-7.911 2.637-16.366-1.667-18.97-9.478z" fill="#ffea00"/><path d="m476.254 345.224-45-15c-7.852-2.607-12.1-11.104-9.478-18.97 2.607-7.852 11.045-12.085 18.97-9.478l45 15c7.852 2.607 12.1 11.104 9.478 18.97-2.606 7.817-11.065 12.113-18.97 9.478z" fill="#fabe2c"/><path d="m497 241h-61c-8.291 0-15 6.709-15 15s6.709 15 15 15h61c8.291 0 15-6.709 15-15s-6.709-15-15-15z" fill="#ffea00"/><path d="m436 271h61c8.291 0 15-6.709 15-15h-91c0 8.291 6.709 15 15 15z" fill="#fabe2c"/><path d="m376 91c-8.291 0-15 6.709-15 15v150 150c0 8.291 6.709 15 15 15s15-6.709 15-15v-150-150c0-8.291-6.709-15-15-15z" fill="#fe8205"/><path d="m45 181c-24.901 0-45 20.099-45 45v30 30c0 24.899 20.099 45 45 45h186.099c3.301 0 6.601 0 9.901.599v-75.599-75.601c-3.3.601-6.599.601-9.901.601z" fill="#fe8205"/><g fill="#fa5d0f"><path d="m376 421c8.291 0 15-6.709 15-15v-150h-30v150c0 8.291 6.709 15 15 15z"/><path d="m45 331h186.099c3.301 0 6.601 0 9.901.599v-75.599h-241v30c0 24.899 20.099 45 45 45z"/></g></g></svg>