<svg id="Capa_1" enable-background="new 0 0 497 497" height="512" viewBox="0 0 497 497" width="512" xmlns="http://www.w3.org/2000/svg"><g><path d="m273.246 356.168h-90.639c-3.314 0-6 2.686-6 6v10.567c0 6.826-7.793 10.722-13.253 6.627l-44.178-33.133c-4.418-3.313-4.418-9.94 0-13.253l44.178-33.133c5.461-4.096 13.253-.199 13.253 6.627v10.567c0 3.314 2.686 6 6 6h90.639c4.575 0 8.283 3.708 8.283 8.283v16.567c0 4.573-3.708 8.281-8.283 8.281z" fill="#83e85a"/><path d="m124.146 422.435h90.639c3.314 0 6-2.686 6-6v-10.567c0-6.826 7.793-10.722 13.253-6.627l44.178 33.133c4.418 3.313 4.418 9.94 0 13.253l-44.178 33.133c-5.461 4.095-13.253.199-13.253-6.627v-10.567c0-3.314-2.686-6-6-6h-90.639c-4.575 0-8.283-3.709-8.283-8.283v-16.567c0-4.573 3.708-8.281 8.283-8.281z" fill="#ff4b68"/><ellipse cx="149.065" cy="132.533" fill="#fdbe40" rx="132.533" ry="132.533" transform="matrix(.707 -.707 .707 .707 -50.055 144.223)"/><circle cx="149.065" cy="132.533" fill="#f58c31" r="99.4"/><path d="m156.566 125.92v-33.858c5.816 2.805 9.85 8.743 9.85 15.622 0 4.143 3.357 7.5 7.5 7.5s7.5-3.357 7.5-7.5c0-15.256-10.618-28.071-24.85-31.463v-9.954c0-4.143-3.357-7.5-7.5-7.5s-7.5 3.357-7.5 7.5v9.954c-14.232 3.393-24.851 16.207-24.851 31.463s10.619 28.07 24.851 31.462v33.859c-5.817-2.804-9.851-8.743-9.851-15.621 0-4.143-3.357-7.5-7.5-7.5s-7.5 3.357-7.5 7.5c0 15.256 10.619 28.07 24.851 31.462v9.954c0 4.143 3.357 7.5 7.5 7.5s7.5-3.357 7.5-7.5v-9.954c14.232-3.393 24.85-16.207 24.85-31.462-.001-15.256-10.619-28.071-24.85-31.464zm-24.851-18.236c0-6.879 4.033-12.817 9.851-15.622v31.243c-5.817-2.805-9.851-8.743-9.851-15.621zm24.851 65.32v-31.242c5.816 2.805 9.85 8.743 9.85 15.622-.001 6.878-4.034 12.816-9.85 15.62z" fill="#fdbe40"/><circle cx="397.565" cy="248.5" fill="#f8c09c" r="49.7"/><path d="m480.468 347.9c0-27.541-22.401-49.85-49.977-49.699-8.962 0-56.889 0-65.851 0-27.576-.15-49.977 22.158-49.977 49.699v50.915c0 4.575 27.85 98.185 32.425 98.185h100.424c4.575 0 32.956-94.626 32.956-99.201z" fill="#118df0"/><ellipse cx="430.699" cy="364.467" fill="#d0e2ed" rx="16.567" ry="16.567" transform="matrix(.16 -.987 .987 .16 1.948 731.223)"/><path d="m397.565 198.8c-3.96 0-7.807.477-11.5 1.352 21.901 5.191 38.2 24.86 38.2 48.348s-16.299 43.157-38.2 48.348c3.693.875 7.54 1.352 11.5 1.352 27.448 0 49.7-22.251 49.7-49.7s-22.251-49.7-49.7-49.7z" fill="#f8aa8b"/><path d="m430.491 298.201c-3.44 0-12.622 0-23.136 0 27.576-.15 49.977 22.158 49.977 49.699v140.816c0 4.575-3.708 8.284-8.283 8.284l23.136-8.63c4.575 0 8.283-86.208 8.283-90.783v-49.687c0-27.541-22.401-49.849-49.977-49.699z" fill="#1179f0"/><path d="m372.715 298.2 18.274 24.547c3.315 4.329 9.837 4.329 13.152 0l18.274-24.546z" fill="#f8c09c"/><path d="m372.715 298.2 26.7.001-13.35 17.932 4.924 6.614c3.315 4.329 9.837 4.329 13.152 0l18.274-24.546z" fill="#f8aa8b"/><path d="m338.707 409.588-23.975-11.988-.069.075v91.042c0 4.575 3.709 8.284 8.283 8.284h24.919v-72.595c0-6.275-3.545-12.012-9.158-14.818z" fill="#d0e2ed"/><path d="m480.468 488.716v-91.169l-.069.053-23.976 11.988c-5.612 2.806-9.158 8.543-9.158 14.818v72.594h24.919c4.575 0 8.284-3.708 8.284-8.284z" fill="#d0e2ed"/><path d="m457.332 409.133v79.583c0 4.575-3.708 8.284-8.283 8.284h23.136c4.575 0 8.283-3.708 8.283-8.284v-91.169l-.069.053z" fill="#aabfcf"/><path d="m149.065 0c-3.875 0-7.709.176-11.5.502 67.81 5.83 121.033 62.71 121.033 132.031s-53.223 126.201-121.033 132.031c3.791.326 7.625.502 11.5.502 73.196 0 132.533-59.337 132.533-132.534.001-73.195-59.336-132.532-132.533-132.532z" fill="#faa83c"/></g></svg>