<?xml version="1.0" encoding="iso-8859-1"?>
<!-- Generator: Adobe Illustrator 19.0.0, SVG Export Plug-In . SVG Version: 6.00 Build 0)  -->
<svg version="1.1" id="Capa_1" xmlns="http://www.w3.org/2000/svg" xmlns:xlink="http://www.w3.org/1999/xlink" x="0px" y="0px"
	 viewBox="0 0 512 512" style="enable-background:new 0 0 512 512;" xml:space="preserve">
<g>
	<circle style="fill:#455A64;" cx="95.991" cy="64" r="64"/>
	<path style="fill:#455A64;" d="M177.335,188.832C175.703,172.384,162.007,160,145.495,160h-17.504
		c-4.256,0-8.32,1.696-11.328,4.672l-20.672,20.672l-20.672-20.672C72.311,161.696,68.247,160,63.991,160H46.487
		c-16.512,0-30.208,12.384-31.84,28.8L0.087,334.4c-0.448,4.512,1.024,8.96,4.064,12.352C7.159,350.08,11.479,352,15.991,352h17.504
		l13.12,131.2c1.632,16.384,15.36,28.8,31.872,28.8h35.04c16.512,0,30.208-12.416,31.84-28.8l13.12-131.2h17.504
		c4.512,0,8.832-1.92,11.872-5.248c3.04-3.36,4.512-7.84,4.064-12.352L177.335,188.832z"/>
</g>
<path style="fill:#FFC107;" d="M495.991,192h-40.288c-5.824-16.672-14.656-32.096-26.048-45.472l20.064-34.88
	c2.112-3.68,2.688-8.032,1.568-12.128c-1.088-4.096-3.776-7.584-7.456-9.696l-55.68-32c-3.648-2.112-8.032-2.624-12.16-1.568
	c-4.096,1.12-7.552,3.808-9.696,7.488l-19.936,34.72c-17.056-3.296-35.648-3.264-52.672,0l-19.968-34.752
	c-4.416-7.648-14.208-10.272-21.856-5.888l-55.68,32c-3.68,2.112-6.368,5.6-7.488,9.696c-1.088,4.096-0.544,8.48,1.568,12.128
	l20.032,34.88c-3.68,4.384-6.656,9.248-9.824,14.016c4.384,7.584,7.776,15.808,8.704,25.12l14.56,145.568
	c1.344,13.408-3.072,26.848-12.096,36.896l-0.096,0.128c-5.984,6.592-13.76,11.104-22.208,13.568
	c1.248,3.36,3.456,6.432,6.816,8.352l55.68,32c2.432,1.408,5.216,2.112,7.968,2.112c1.376,0,2.784-0.192,4.16-0.576
	c4.096-1.088,7.584-3.776,9.696-7.456l19.936-34.72c17.056,3.264,35.616,3.264,52.672,0l19.936,34.72
	c2.112,3.68,5.6,6.368,9.696,7.456c4.128,1.12,8.512,0.576,12.16-1.568l55.68-32c3.68-2.112,6.368-5.6,7.456-9.728
	c1.12-4.096,0.576-8.448-1.568-12.128l-20.064-34.88c11.488-13.312,20.352-28.736,26.144-45.408h40.288c8.832,0,16-7.168,16-16v-64
	C511.991,199.168,504.823,192,495.991,192z"/>
<circle style="fill:#FAFAFA;" cx="319.991" cy="240" r="64"/>
<g>
</g>
<g>
</g>
<g>
</g>
<g>
</g>
<g>
</g>
<g>
</g>
<g>
</g>
<g>
</g>
<g>
</g>
<g>
</g>
<g>
</g>
<g>
</g>
<g>
</g>
<g>
</g>
<g>
</g>
</svg>
