<svg height="512pt" viewBox="0 -91 512 512" width="512pt" xmlns="http://www.w3.org/2000/svg"><path d="m347 330c-90.980469 0-165-74.019531-165-165s74.019531-165 165-165 165 74.019531 165 165-74.019531 165-165 165zm0 0" fill="#fbde55"/><path d="m347 330c90.980469 0 165-74.019531 165-165h-330c0 90.980469 74.019531 165 165 165zm0 0" fill="#ffb62c"/><path d="m165 330c-90.980469 0-165-74.019531-165-165s74.019531-165 165-165 165 74.019531 165 165-74.019531 165-165 165zm0 0" fill="#15e890"/><path d="m165 330c90.980469 0 165-74.019531 165-165h-330c0 90.980469 74.019531 165 165 165zm0 0" fill="#10c47a"/><path d="m197 150h148v30h-148zm0 0" fill="#fbde55"/><path d="m217 90h128v30h-128zm0 0" fill="#fbde55"/><g fill="#ffb62c"><path d="m217 210h128v30h-128zm0 0"/><path d="m197 165h148v15h-148zm0 0"/></g></svg>