<svg id="Capa_1" enable-background="new 0 0 512 512" height="512" viewBox="0 0 512 512" width="512" xmlns="http://www.w3.org/2000/svg"><g><path d="m488.139 255.795 20.42-49.468c8.467-20.522.879-43.872-18.047-55.488l-52.271-31.274-11.777-48.75c-5.229-21.621-25.313-36.05-47.212-34.307l-59.81 4.629-34.262-30.343c-8.449-7.194-18.813-10.792-29.18-10.794-10.36-.002-20.724 3.589-29.18 10.779l-34.263 30.357-59.81-4.629c-21.636-1.479-41.997 12.7-46.67 32.534 1.135-3.527-16.333 50.768-17.3 53.774l-47.282 28.008c-18.94 11.631-26.528 34.98-18.047 55.518l20.405 49.453-20.389 49.439c-8.496 20.552-.894 43.887 18.032 55.503l52.218 31.055 11.821 48.97c5.2 21.606 25.034 35.903 47.212 34.307l59.165-4.57 34.907 30.692c8.453 7.206 18.81 10.81 29.181 10.81 10.356 0 20.728-3.604 29.18-10.811l34.907-30.692 59.165 4.57c22.251 1.743 42.026-12.686 47.212-34.307l11.777-48.75 52.271-31.274c18.911-11.616 26.499-34.951 18.032-55.503z" fill="#fed843"/><path d="m320.087 470.497 59.165 4.57c22.251 1.743 42.026-12.686 47.212-34.307l11.777-48.75 52.271-31.274c18.911-11.616 26.499-34.951 18.032-55.503l-20.405-49.438 20.42-49.468c8.467-20.522.879-43.872-18.047-55.488l-52.271-31.274-11.777-48.75c-5.229-21.621-25.313-36.05-47.212-34.307l-59.81 4.629-34.262-30.343c-8.449-7.194-18.813-10.792-29.18-10.794v512c10.356 0 20.728-3.604 29.18-10.811z" fill="#fabe2c"/><circle cx="256" cy="256" fill="#ff641a" r="165"/><path d="m421 256c0-90.981-74.019-165-165-165v330c90.981 0 165-74.019 165-165z" fill="#f03800"/><circle cx="211" cy="211" fill="#edf5ff" r="15"/><circle cx="301" cy="301" fill="#d5e8fe" r="15"/><path d="m326.605 185.395c-5.859-5.859-15.352-5.859-21.211 0l-49.394 49.394-70.605 70.605c-5.859 5.859-5.859 15.352 0 21.211s15.352 5.859 21.211 0l49.394-49.394 70.605-70.605c5.86-5.86 5.86-15.352 0-21.211z" fill="#edf5ff"/><path d="m326.605 185.395c-5.859-5.859-15.352-5.859-21.211 0l-49.394 49.394v42.422l70.605-70.605c5.86-5.86 5.86-15.352 0-21.211z" fill="#d5e8fe"/></g></svg>