<svg height="512" viewBox="0 0 512 512" width="512" xmlns="http://www.w3.org/2000/svg"><g id="flat"><path d="m62 48h388a30 30 0 0 1 30 30v306a0 0 0 0 1 0 0h-448a0 0 0 0 1 0 0v-306a30 30 0 0 1 30-30z" fill="#cbcbcb"/><path d="m72 112h368a0 0 0 0 1 0 0v226a14 14 0 0 1 -14 14h-340a14 14 0 0 1 -14-14v-226a0 0 0 0 1 0 0z" fill="#fbfdff"/><path d="m488 416v22a26 26 0 0 1 -26 26h-412a26 26 0 0 1 -26-26v-22h184l16 16h64l16-16z" fill="#cbcbcb"/><path d="m32 384-8 32h184l16 16h64l16-16h184l-8-32z" fill="#b9b9b9"/><circle cx="256" cy="216" fill="#fbb540" r="72"/><path d="m269.923 215.434-19.2-12.33a5.233 5.233 0 0 1 -2.723-4.229v-1.175a4.852 4.852 0 0 1 1.89-3.611 9.974 9.974 0 0 1 12.22 0 4.848 4.848 0 0 1 1.89 3.611 8 8 0 0 0 16 0 20.855 20.855 0 0 0 -7.483-15.764 24.482 24.482 0 0 0 -8.517-4.69v-9.246a8 8 0 0 0 -16 0v9.246a24.482 24.482 0 0 0 -8.517 4.69 20.855 20.855 0 0 0 -7.483 15.764v1.175a21.166 21.166 0 0 0 10.077 17.691l19.2 12.33a5.233 5.233 0 0 1 2.723 4.229v1.175a4.852 4.852 0 0 1 -1.89 3.611 9.974 9.974 0 0 1 -12.22 0 4.848 4.848 0 0 1 -1.89-3.611 8 8 0 0 0 -16 0 20.855 20.855 0 0 0 7.483 15.764 24.482 24.482 0 0 0 8.517 4.69v9.246a8 8 0 0 0 16 0v-9.246a24.482 24.482 0 0 0 8.517-4.69 20.855 20.855 0 0 0 7.483-15.764v-1.175a21.166 21.166 0 0 0 -10.077-17.691z" fill="#d18d28"/><path d="m304 228.274 26.74 85.352 17.276-16.66 22.213 23.034 5.964-16.865 17.07-5.348-22.213-23.034 17.276-16.66z" fill="#eaeae8"/><path d="m86 80h340a14 14 0 0 1 14 14v18a0 0 0 0 1 0 0h-368a0 0 0 0 1 0 0v-18a14 14 0 0 1 14-14z" fill="#009cf7"/><g fill="#eaeae8"><circle cx="224" cy="320" r="8"/><circle cx="256" cy="320" r="8"/><circle cx="288" cy="320" r="8"/></g></g></svg>