<svg id="Flat" height="512" viewBox="0 0 512 512" width="512" xmlns="http://www.w3.org/2000/svg"><rect fill="#e9eef2" height="336" rx="32" width="464" x="24" y="48"/><path d="m488 320v32a32 32 0 0 1 -32 32h-400a32 32 0 0 1 -32-32v-32z" fill="#9aa3a8"/><path d="m336 464h-160l16-80h128z" fill="#757c80"/><circle cx="72" cy="80" fill="#d13330" r="8"/><circle cx="104" cy="80" fill="#ffb632" r="8"/><circle cx="136" cy="80" fill="#35a872" r="8"/><path d="m264 360h-16a8 8 0 0 1 0-16h16a8 8 0 0 1 0 16z" fill="#757c80"/><path d="m264 184a8 8 0 0 1 -8-8v-32a8 8 0 0 1 16 0v32a8 8 0 0 1 -8 8z" fill="#dadcde"/><path d="m264 248a8 8 0 0 1 -8-8v-32a8 8 0 0 1 16 0v32a8 8 0 0 1 -8 8z" fill="#dadcde"/><path d="m88 152h96v96h-96z" fill="#ffb632"/><path d="m88 152h96v32h-96z" fill="#d46109"/><path d="m152 216-16-16-16 16v-64h32z" fill="#d13330"/><circle cx="264" cy="128" fill="#35a872" r="16"/><circle cx="264" cy="192" fill="#35a872" r="16"/><circle cx="264" cy="256" fill="#35a872" r="16"/><g fill="#9aa3a8"><path d="m392 136h-80a8 8 0 0 1 0-16h80a8 8 0 0 1 0 16z"/><path d="m440 136h-16a8 8 0 0 1 0-16h16a8 8 0 0 1 0 16z"/><path d="m392 200h-80a8 8 0 0 1 0-16h80a8 8 0 0 1 0 16z"/><path d="m440 200h-16a8 8 0 0 1 0-16h16a8 8 0 0 1 0 16z"/><path d="m392 264h-80a8 8 0 0 1 0-16h80a8 8 0 0 1 0 16z"/><path d="m440 264h-16a8 8 0 0 1 0-16h16a8 8 0 0 1 0 16z"/></g></svg>