<svg height="512" viewBox="0 0 58 58" width="512" xmlns="http://www.w3.org/2000/svg"><g id="Page-1" fill="none" fill-rule="evenodd"><g id="064---Subscription-Models" fill-rule="nonzero"><rect id="Rectangle-path" fill="#84b5cb" height="43" rx="2" width="58" y="5"/><path id="Shape" d="m46.22 5c-1.22 16-10.22 35-46.22 40.49v-38.49c.0032948-1.10320187.89679813-1.9967052 2-2z" fill="#9fc9d3"/><path id="Shape" d="m18 3.35v14.65h-14v-14.65c-.09205795-1.75188866 1.24860621-3.24896364 3-3.35h8c1.7513938.10103636 3.092058 1.59811134 3 3.35z" fill="#f0c419"/><path id="Shape" d="m18 18v16.65c.092058 1.7518887-1.2486062 3.2489636-3 3.35h-8c-1.75139379-.1010364-3.09205795-1.5981113-3-3.35v-16.65z" fill="#ecf0f1"/><path id="Shape" d="m36 3.35v14.65h-14v-14.65c-.092058-1.75188866 1.2486062-3.24896364 3-3.35h8c1.7513938.10103636 3.092058 1.59811134 3 3.35z" fill="#f0c419"/><path id="Shape" d="m36 18v16.65c.092058 1.7518887-1.2486062 3.2489636-3 3.35h-8c-1.7513938-.1010364-3.092058-1.5981113-3-3.35v-16.65z" fill="#ecf0f1"/><path id="Shape" d="m54 3.35v14.65h-14v-14.65c-.092058-1.75188866 1.2486062-3.24896364 3-3.35h8c1.7513938.10103636 3.092058 1.59811134 3 3.35z" fill="#f0c419"/><path id="Shape" d="m54 18v16.65c.092058 1.7518887-1.2486062 3.2489636-3 3.35h-8c-1.7513938-.1010364-3.092058-1.5981113-3-3.35v-16.65z" fill="#ecf0f1"/><path id="Shape" d="m37 48 3 6-11 2-11-2 3-6 8-2z" fill="#2980ba"/><path id="Shape" d="m14 23h-6c-.55228475 0-1-.4477153-1-1s.44771525-1 1-1h6c.5522847 0 1 .4477153 1 1s-.4477153 1-1 1z" fill="#3f5c6c"/><path id="Shape" d="m32 23h-6c-.5522847 0-1-.4477153-1-1s.4477153-1 1-1h6c.5522847 0 1 .4477153 1 1s-.4477153 1-1 1z" fill="#3f5c6c"/><path id="Shape" d="m32 27h-6c-.5522847 0-1-.4477153-1-1s.4477153-1 1-1h6c.5522847 0 1 .4477153 1 1s-.4477153 1-1 1z" fill="#3f5c6c"/><path id="Shape" d="m14 27h-6c-.55228475 0-1-.4477153-1-1s.44771525-1 1-1h6c.5522847 0 1 .4477153 1 1s-.4477153 1-1 1z" fill="#3f5c6c"/><path id="Shape" d="m11 8c-.4851707-.00047298-.9000069-.34913653-.9839455-.82699124-.08393858-.47785472.1872399-.94702164.6432053-1.11281187.4559653-.16579023.9651545.01963291 1.2077402.43980311.2843876.45968211.882589.61017004 1.3506397.33977682.4680507-.27039323.6365131-.86378348.3803603-1.33977682-.3625283-.60836502-.9285888-1.06886482-1.598-1.3v-.2c0-.55228475-.4477153-1-1-1s-1 .44771525-1 1v.184c-1.37654748.48485233-2.2026937 1.89184415-1.95538732 3.33017801.24730637 1.43833387 1.49595006 2.48858739 2.95538732 2.48582199.4851707.000473.9000069.3491365.9839455.8269912.0839386.4778548-.1872399.9470217-.6432053 1.1128119-.4559653.1657902-.9651545-.0196329-1.2077402-.4398031-.28438758-.4596821-.88258902-.61017-1.3506397-.3397768-.46805067.2703932-.63651313.8637835-.3803603 1.3397768.36302417.6087308.92984682 1.0692742 1.6 1.3v.2c0 .5522847.4477153 1 1 1s1-.4477153 1-1v-.184c1.3769108-.4849733 2.2030823-1.8925391 1.9552305-3.3311676-.2478517-1.43862856-1.4974125-2.48858024-2.9572305-2.4848324z" fill="#e57e25"/><path id="Shape" d="m29 8c-.4851707-.00047298-.9000069-.34913653-.9839455-.82699124-.0839386-.47785472.1872399-.94702164.6432053-1.11281187.4559653-.16579023.9651545.01963291 1.2077402.43980311.2843876.45968211.882589.61017004 1.3506397.33977682.4680507-.27039323.6365131-.86378348.3803603-1.33977682-.3625283-.60836502-.9285888-1.06886482-1.598-1.3v-.2c0-.55228475-.4477153-1-1-1s-1 .44771525-1 1v.184c-1.3765475.48485233-2.2026937 1.89184415-1.9553873 3.33017801.2473064 1.43833387 1.49595 2.48858739 2.9553873 2.48582199.4851707.000473.9000069.3491365.9839455.8269912.0839386.4778548-.1872399.9470217-.6432053 1.1128119-.4559653.1657902-.9651545-.0196329-1.2077402-.4398031-.2843876-.4596821-.882589-.61017-1.3506397-.3397768s-.6365131.8637835-.3803603 1.3397768c.3630242.6087308.9298468 1.0692742 1.6 1.3v.2c0 .5522847.4477153 1 1 1s1-.4477153 1-1v-.184c1.3769108-.4849733 2.2030823-1.8925391 1.9552305-3.3311676-.2478517-1.43862856-1.4974125-2.48858024-2.9572305-2.4848324z" fill="#e57e25"/><path id="Shape" d="m50 11c0-1.65685425-1.3431458-3-3-3-.4851707-.00047298-.9000069-.34913653-.9839455-.82699124-.0839386-.47785472.1872399-.94702164.6432053-1.11281187.4559653-.16579023.9651545.01963291 1.2077402.43980311.2843876.45968211.882589.61017004 1.3506397.33977682.4680507-.27039323.6365131-.86378348.3803603-1.33977682-.3625283-.60836502-.9285888-1.06886482-1.598-1.3v-.2c0-.55228475-.4477153-1-1-1s-1 .44771525-1 1v.184c-1.3765475.48485233-2.2026937 1.89184415-1.9553873 3.33017801.2473064 1.43833387 1.49595 2.48858739 2.9553873 2.48582199.4851707.000473.9000069.3491365.9839455.8269912.0839386.4778548-.1872399.9470217-.6432053 1.1128119-.4559653.1657902-.9651545-.0196329-1.2077402-.4398031-.2843876-.4596821-.882589-.61017-1.3506397-.3397768s-.6365131.8637835-.3803603 1.3397768c.3630242.6087308.9298468 1.0692742 1.6 1.3v.2c0 .5522847.4477153 1 1 1s1-.4477153 1-1v-.184c1.1935621-.4229269 1.99305-1.5497326 1.998-2.816z" fill="#e57e25"/><g fill="#3f5c6c"><path id="Shape" d="m50 23h-6c-.5522847 0-1-.4477153-1-1s.4477153-1 1-1h6c.5522847 0 1 .4477153 1 1s-.4477153 1-1 1z"/><path id="Shape" d="m50 27h-6c-.5522847 0-1-.4477153-1-1s.4477153-1 1-1h6c.5522847 0 1 .4477153 1 1s-.4477153 1-1 1z"/><path id="Shape" d="m50 31h-6c-.5522847 0-1-.4477153-1-1s.4477153-1 1-1h6c.5522847 0 1 .4477153 1 1s-.4477153 1-1 1z"/><path id="Shape" d="m32 31h-6c-.5522847 0-1-.4477153-1-1s.4477153-1 1-1h6c.5522847 0 1 .4477153 1 1s-.4477153 1-1 1z"/><path id="Shape" d="m50 35h-6c-.5522847 0-1-.4477153-1-1s.4477153-1 1-1h6c.5522847 0 1 .4477153 1 1s-.4477153 1-1 1z"/></g><rect id="Rectangle-path" fill="#3b97d3" height="4" rx="2" width="34" x="12" y="54"/><path id="Shape" d="m58 42v4c-.0032948 1.1032019-.8967981 1.9967052-2 2h-54c-1.10320187-.0032948-1.9967052-.8967981-2-2v-4z" fill="#3b97d3"/></g></g></svg>