<?xml version="1.0"?>
<svg xmlns="http://www.w3.org/2000/svg" xmlns:xlink="http://www.w3.org/1999/xlink" xmlns:svgjs="http://svgjs.com/svgjs" version="1.1" width="512" height="512" x="0" y="0" viewBox="0 0 24 24" style="enable-background:new 0 0 512 512" xml:space="preserve"><g><g xmlns="http://www.w3.org/2000/svg"><path d="m13.5 24h-11c-1.378 0-2.5-1.121-2.5-2.5v-19c0-1.379 1.122-2.5 2.5-2.5h11c1.378 0 2.5 1.121 2.5 2.5v2c0 .276-.224.5-.5.5s-.5-.224-.5-.5v-2c0-.827-.673-1.5-1.5-1.5h-11c-.827 0-1.5.673-1.5 1.5v19c0 .827.673 1.5 1.5 1.5h11c.827 0 1.5-.673 1.5-1.5v-4c0-.276.224-.5.5-.5s.5.224.5.5v4c0 1.379-1.122 2.5-2.5 2.5z" fill="#ffffff" data-original="#000000" style=""/></g><g xmlns="http://www.w3.org/2000/svg"><path d="m10 3h-4c-.827 0-1.5-.673-1.5-1.5 0-.275-.224-.5-.5-.5h-1c-.276 0-.5-.224-.5-.5s.224-.5.5-.5h1c.827 0 1.5.673 1.5 1.5 0 .275.224.5.5.5h4c.276 0 .5-.225.5-.5 0-.827.673-1.5 1.5-1.5h1c.276 0 .5.224.5.5s-.224.5-.5.5h-1c-.276 0-.5.225-.5.5 0 .827-.673 1.5-1.5 1.5z" fill="#ffffff" data-original="#000000" style=""/></g><g xmlns="http://www.w3.org/2000/svg"><path d="m8 18.75c-1.103 0-2-.897-2-2s.897-2 2-2 2 .897 2 2-.897 2-2 2zm0-3c-.551 0-1 .448-1 1s.449 1 1 1 1-.448 1-1-.449-1-1-1z" fill="#ffffff" data-original="#000000" style=""/></g><g xmlns="http://www.w3.org/2000/svg"><path d="m11.5 23.75c-.276 0-.5-.224-.5-.5v-1c0-.827-.673-1.5-1.5-1.5h-3c-.827 0-1.5.673-1.5 1.5v1c0 .276-.224.5-.5.5s-.5-.224-.5-.5v-1c0-1.379 1.122-2.5 2.5-2.5h3c1.378 0 2.5 1.121 2.5 2.5v1c0 .276-.224.5-.5.5z" fill="#ffffff" data-original="#000000" style=""/></g><g xmlns="http://www.w3.org/2000/svg"><path d="m23.5 15c-.115 0-.229-.039-.32-.116l-2.18-1.817v.433c0 .827-.673 1.5-1.5 1.5h-6c-.827 0-1.5-.673-1.5-1.5v-5c0-.827.673-1.5 1.5-1.5h6c.827 0 1.5.673 1.5 1.5v.433l2.18-1.816c.149-.125.358-.149.532-.069.176.082.288.258.288.452v7c0 .194-.112.37-.288.453-.067.031-.14.047-.212.047zm-10-7c-.276 0-.5.225-.5.5v5c0 .275.224.5.5.5h6c.276 0 .5-.225.5-.5v-1.5c0-.194.112-.37.288-.453.175-.081.383-.057.532.069l2.18 1.817v-4.866l-2.18 1.816c-.149.126-.358.15-.532.069-.176-.082-.288-.258-.288-.452v-1.5c0-.275-.224-.5-.5-.5z" fill="#ffffff" data-original="#000000" style=""/></g></g></svg>
