<svg height="512pt" viewBox="-13 0 512 512" width="512pt" xmlns="http://www.w3.org/2000/svg"><path d="m342.148438 512h-319.824219c-12.328125 0-22.324219-9.996094-22.324219-22.324219v-467.351562c0-12.328125 9.996094-22.324219 22.324219-22.324219h319.824219c12.328124 0 22.324218 9.996094 22.324218 22.324219v467.351562c0 12.328125-9.996094 22.324219-22.324218 22.324219zm0 0" fill="#465058"/><path d="m342.148438 0h-37.296876v512h37.296876c12.328124 0 22.324218-9.996094 22.324218-22.324219v-467.351562c0-12.328125-9.996094-22.324219-22.324218-22.324219zm0 0" fill="#323e44"/><path d="m39.15625 439.496094v-394.320313c0-3.324219 2.695312-6.019531 6.015625-6.019531h274.125c3.324219 0 6.015625 2.695312 6.015625 6.019531v394.320313c0 3.324218-2.691406 6.019531-6.015625 6.019531h-274.121094c-3.324219 0-6.019531-2.695313-6.019531-6.019531zm0 0" fill="#e3f6ff"/><path d="m319.296875 39.15625h-53.226563v406.359375h53.226563c3.324219 0 6.019531-2.695313 6.019531-6.019531v-394.320313c0-3.324219-2.695312-6.019531-6.019531-6.019531zm0 0" fill="#cee8f2"/><path d="m319.296875 39.15625h-274.121094c-3.324219 0-6.019531 2.695312-6.019531 6.019531v39.769531h286.160156v-39.769531c0-3.324219-2.695312-6.019531-6.019531-6.019531zm0 0" fill="#59c7d3"/><path d="m227.824219 333.011719c-7.058594-1.417969-12.140625-9.609375-12.140625-16.8125v-32.097657h-66.898438v32.097657c0 7.203125-5.078125 15.394531-12.140625 16.8125l-8.148437 2.300781v54.074219h107.476562v-54.074219zm0 0" fill="#ffede1"/><path d="m249.347656 214.035156h-4.28125v-17.054687c0-16.976563-6.972656-33.425781-19.835937-44.503907-10.085938-8.6875-24.265625-16.265624-42.996094-16.476562-18.726563.210938-32.90625 7.789062-42.992187 16.476562-12.863282 11.078126-19.835938 27.527344-19.835938 44.503907v17.054687h-4.285156c-6.277344 0-11.367188 5.09375-11.367188 11.371094v12.601562c0 6.28125 5.089844 11.371094 11.367188 11.371094h4.304687c.351563 16.503906 7.289063 32.386719 19.816407 43.175782 10.085937 8.683593 24.265624 16.265624 42.992187 16.476562 18.730469-.210938 32.910156-7.792969 42.996094-16.476562 12.527343-10.789063 19.464843-26.671876 19.816406-43.175782h4.300781c6.28125 0 11.371094-5.089844 11.371094-11.371094v-12.601562c0-6.277344-5.089844-11.371094-11.371094-11.371094zm0 0" fill="#ffede1"/><path d="m249.347656 214.035156h-4.28125v-17.054687c0-16.976563-6.972656-33.425781-19.835937-44.503907-10.085938-8.6875-24.265625-16.265624-42.996094-16.476562-11.578125.128906-21.414063 3.082031-29.625 7.367188 5.070313 2.644531 9.519531 5.792968 13.371094 9.109374 12.863281 11.078126 19.835937 27.527344 19.835937 44.503907v12.027343l-.019531 40.371094c-.351563 16.503906-7.289063 32.390625-19.816406 43.175782-3.851563 3.316406-8.300781 6.464843-13.371094 9.109374 8.210937 4.285157 18.046875 7.238282 29.625 7.367188 18.730469-.210938 32.910156-7.789062 42.996094-16.476562 12.527343-10.785157 19.464843-26.671876 19.816406-43.175782h4.300781c6.28125 0 11.371094-5.089844 11.371094-11.371094v-12.601562c0-6.277344-5.089844-11.371094-11.371094-11.371094zm0 0" fill="#ffe1cc"/><path d="m288.003906 349.96875-61.578125-19.203125c-1.914062-.59375-3.996093-.109375-5.453125 1.265625l-19.195312 12.339844c-11.90625 7.652344-27.179688 7.652344-39.082032 0l-19.199218-12.339844c-1.453125-1.375-3.539063-1.859375-5.449219-1.265625l-61.582031 19.203125c-16.117188 4.746094-29.253906 15.429688-37.308594 29.238281v60.289063c0 3.324218 2.691406 6.019531 6.015625 6.019531h274.125c3.320313 0 6.015625-2.695313 6.015625-6.019531v-60.289063c-8.054688-13.808593-21.1875-24.492187-37.308594-29.238281zm0 0" fill="#fc5c5a"/><path d="m325.285156 44.558594c-.1875-1.820313-1.183594-3.402344-2.625-4.375-.957031-.648438-2.117187-1.027344-3.363281-1.027344h-53.226563v45.789062h59.246094v-39.769531c0-.210937-.011718-.414062-.03125-.617187zm0 0" fill="#44b6bc"/><path d="m288.003906 349.96875-21.933594-6.839844v102.386719h53.226563c3.324219 0 6.019531-2.695313 6.019531-6.019531v-60.289063c-8.058594-13.808593-21.191406-24.492187-37.3125-29.238281zm0 0" fill="#db4242"/><path d="m210.683594 132.519531h-56.898438c-24.246094 0-43.90625 19.65625-43.90625 43.90625v36.496094c0 1.4375 1.074219 2.644531 2.5 2.800781 3.269532.355469 9.074219 1.582032 13.285156 5.75 1.289063 1.269532 3.472657.339844 3.472657-1.46875v-11.566406c0-3.140625 2.542969-5.6875 5.683593-5.707031 56.738282-.339844 69.191407-28.367188 71.515626-35.894531 16.015624 0 29 12.984374 29 29v24.167968c0 1.8125 2.183593 2.738282 3.46875 1.46875 4.210937-4.167968 10.019531-5.394531 13.289062-5.75 1.425781-.15625 2.5-1.363281 2.5-2.796875v-36.5c0-24.25-19.660156-43.90625-43.910156-43.90625zm0 0" fill="#ff8c51"/><path d="m210.683594 132.519531h-30.84375c3.914062 8.113281 5.972656 17.144531 5.972656 26.335938v12.023437l-.007812 20.097656c14.507812-8.71875 19.195312-19.816406 20.53125-24.140624 16.015624 0 29 12.980468 29 29v24.167968c0 1.808594 2.183593 2.738282 3.46875 1.464844 4.210937-4.164062 10.019531-5.390625 13.289062-5.75 1.425781-.15625 2.5-1.363281 2.5-2.796875v-36.496094c0-24.25-19.660156-43.90625-43.910156-43.90625zm0 0" fill="#fc7d44"/><path d="m465.617188 109.535156h-151.867188c-11.148438 0-20.1875 9.039063-20.1875 20.1875v86.886719c0 11.148437 9.039062 20.1875 20.1875 20.1875l-15.878906 59.496094c-.714844 2.675781 2.429687 4.691406 4.5625 2.921875l75.230468-62.417969h87.953126c11.148437 0 20.1875-9.039063 20.1875-20.1875v-86.886719c0-11.148437-9.039063-20.1875-20.1875-20.1875zm0 0" fill="#ffcc3b"/><path d="m297.867188 296.292969c-.085938.335937-.117188.65625-.09375.964843.152343 2.15625 2.792968 3.503907 4.660156 1.957032l75.230468-62.417969h-63.914062zm0 0" fill="#efb525"/><path d="m465.617188 109.535156h-39.4375v127.261719h39.4375c11.148437 0 20.183593-9.039063 20.183593-20.1875v-86.886719c.003907-11.148437-9.035156-20.1875-20.183593-20.1875zm0 0" fill="#efb525"/><path d="m437.71875 196.835938-34.160156-11.90625v-23.523438l34.160156-11.910156c1.539062-.535156 3.144531.605468 3.144531 2.234375v42.875c0 1.625-1.609375 2.765625-3.144531 2.230469zm0 0" fill="#cee8f2"/><g fill="#e3f6ff"><path d="m407.988281 201.054688h-65.382812c-2.265625 0-4.101563-1.839844-4.101563-4.105469v-47.566407c0-2.265624 1.835938-4.101562 4.101563-4.101562h65.382812c2.269531 0 4.105469 1.835938 4.105469 4.101562v47.566407c0 2.265625-1.835938 4.105469-4.105469 4.105469zm0 0"/><path d="m202.328125 484.671875c4.269531 0 7.726563-3.460937 7.726563-7.726563 0-4.269531-3.457032-7.726562-7.726563-7.726562h-40.183594c-4.269531 0-7.726562 3.457031-7.726562 7.726562 0 4.265626 3.457031 7.726563 7.726562 7.726563zm0 0"/></g></svg>